<svg xmlns="http://www.w3.org/2000/svg" width="248" height="71" viewBox="0 0 248 71" fill="none">
    <path d="M242.382 69.5826C242.06 70.346 241.181 70.704 240.417 70.3822L227.977 65.1385C227.214 64.8167 226.856 63.937 227.178 63.1736C227.5 62.4102 228.379 62.0523 229.143 62.374L240.2 67.0351L244.862 55.9774C245.183 55.214 246.063 54.856 246.826 55.1778C247.59 55.4996 247.948 56.3793 247.626 57.1427L242.382 69.5826ZM2 69L0.500372 68.9666C1.01617 45.8009 14.3654 28.5857 34.377 17.2537C54.3508 5.94318 81.059 0.415207 108.728 0.500984C136.41 0.586807 165.189 6.29114 189.354 17.5836C213.511 28.8724 233.183 45.8113 242.389 68.4346L241 69L239.611 69.5654C230.779 47.8636 211.808 31.3883 188.084 20.3015C164.367 9.21828 136.027 3.58563 108.719 3.50097C81.3975 3.41627 55.2451 8.88432 35.8553 19.8642C16.5034 30.8226 3.98593 47.1922 3.49963 69.0334L2 69Z" fill="#8F7EFF"/>
</svg>
