<svg xmlns="http://www.w3.org/2000/svg" width="247" height="53" viewBox="0 0 247 53" fill="none">
    <path d="M242.443 1.58888C242.215 0.792179 241.386 0.330385 240.589 0.557439L227.606 4.25749C226.809 4.48454 226.347 5.31446 226.574 6.11117C226.801 6.90787 227.631 7.36967 228.428 7.14261L239.969 3.85368L243.257 15.3942C243.485 16.1909 244.314 16.6527 245.111 16.4256C245.908 16.1986 246.37 15.3686 246.143 14.5719L242.443 1.58888ZM2 2L0.500695 2.04565C1.02918 19.4047 14.6777 32.049 34.5422 40.2756C54.4677 48.5275 81.1119 52.5619 108.727 52.4993C136.355 52.4366 165.081 48.2729 189.204 40.0286C213.273 31.8026 233.023 19.4213 242.311 2.72934L241 2L239.689 1.27066C230.939 16.9955 212.046 29.0515 188.234 37.1898C164.475 45.3098 136.082 49.4372 108.72 49.4993C81.3446 49.5614 55.1282 45.5539 35.6901 37.5039C16.191 29.4286 3.97292 17.5109 3.49931 1.95435L2 2Z" fill="#8F7EFF"/>
</svg>
