<svg xmlns="http://www.w3.org/2000/svg" width="246" height="50" viewBox="0 0 246 50" fill="none">
    <path d="M242.453 1.62839C242.248 0.825786 241.431 0.341525 240.628 0.546761L227.549 3.89127C226.747 4.09651 226.262 4.91352 226.468 5.71613C226.673 6.51873 227.49 7.00299 228.292 6.79775L239.918 3.82485L242.891 15.4508C243.097 16.2534 243.914 16.7376 244.716 16.5324C245.519 16.3272 246.003 15.5101 245.798 14.7075L242.453 1.62839ZM2 2L0.500788 2.04862C1.03265 18.4489 14.7518 30.3233 34.5726 38.0292C54.4875 45.7718 81.1201 49.5581 108.726 49.4993C136.346 49.4405 165.063 45.5329 189.177 37.7961C213.227 30.0798 232.987 18.4607 242.29 2.76483L241 2L239.71 1.23517C230.975 15.9714 212.092 27.2935 188.26 34.9395C164.493 42.5651 136.091 46.4411 108.72 46.4993C81.3364 46.5576 55.1084 42.7944 35.6597 35.2331C16.1169 27.6352 3.96945 16.4514 3.49921 1.95138L2 2Z" fill="#8F7EFF"/>
</svg>
