<svg xmlns="http://www.w3.org/2000/svg" width="85" height="248" viewBox="0 0 85 248" fill="none">
    <path d="M5.67997 242.134C4.92754 241.787 4.59857 240.896 4.94519 240.144L10.5936 227.882C10.9402 227.13 11.8312 226.801 12.5836 227.147C13.3361 227.494 13.665 228.385 13.3184 229.137L8.29757 240.036L19.1967 245.057C19.9491 245.404 20.2781 246.295 19.9315 247.047C19.5849 247.8 18.6939 248.129 17.9415 247.782L5.67997 242.134ZM0.934204 1.8316L0.928698 0.331614C28.1077 0.23184 48.7027 13.0006 62.579 32.7346C76.4218 52.4209 83.5738 79.0124 84.0952 106.717C85.136 162.028 59.7039 222.654 6.82715 242.178L6.30758 240.771L5.788 239.364C56.9759 220.463 82.1242 161.425 81.0957 106.774C80.5824 79.4978 73.5375 53.5346 60.125 34.4602C46.7461 15.4336 27.0278 3.23582 0.939711 3.33159L0.934204 1.8316Z" fill="#8F7EFF"/>
</svg>
