<svg xmlns="http://www.w3.org/2000/svg" width="152" height="120" viewBox="0 0 152 120" fill="none">
    <path d="M125.283 80.8815C123.614 81.1662 122.246 81.4451 120.456 82.2425C120.223 82.3488 119.954 82.4824 119.711 82.6105C119.447 82.7522 119.279 82.8387 118.888 83.0862C118.716 83.1956 118.541 83.3122 118.359 83.4418C118.268 83.5066 118.175 83.5747 118.08 83.6472C118.032 83.6838 117.986 83.7197 117.934 83.7605C117.859 83.8199 117.783 83.8823 117.704 83.9484C117.39 84.2145 117.042 84.5314 116.635 84.9998C116.463 85.2455 115.12 86.5443 114.66 89.1885C114.398 90.2077 114.604 93.108 115.777 94.7907C116.321 95.6707 116.965 96.3374 117.554 96.8205C117.696 96.9376 117.867 97.0666 117.972 97.1414C118.066 97.2091 118.159 97.2727 118.25 97.3327C118.432 97.4526 118.607 97.5579 118.775 97.6516C120.078 98.3707 121.111 98.5387 121.488 98.6131C122.404 98.7713 123.014 98.7652 123.39 98.7614C124.278 98.742 124.763 98.6614 125.29 98.5711C126.186 98.4006 126.004 97.7503 126.322 97.6067C126.915 97.3374 127.935 97.9034 128.064 97.8833C128.861 97.7698 128.369 96.679 128.469 96.6188C129.547 95.972 129.438 97.3185 130.523 97.2649C131.232 97.2294 132.005 97.0788 132.698 96.9252C132.881 96.8853 133.048 96.8477 133.174 96.8166C133.325 96.7818 133.438 96.7561 133.408 96.7447C133.395 96.7421 133.365 96.7408 133.31 96.7397C133.25 96.7375 133.198 96.7411 132.918 96.73C132.785 96.7234 132.614 96.713 132.364 96.681C132.239 96.6646 132.094 96.6426 131.918 96.6082C131.83 96.5909 131.735 96.5704 131.63 96.5452C131.578 96.5326 131.523 96.5188 131.466 96.5036C131.434 96.4951 131.419 96.4908 131.369 96.4769C131.29 96.4548 131.206 96.43 131.117 96.4014C130.437 96.1461 129.239 95.8268 127.768 94.1125C126.189 92.4466 125.801 88.8745 126.55 87.2397C127.251 85.406 127.895 84.9268 128.319 84.4661C128.752 84.0545 129.026 83.8706 129.229 83.7324C129.278 83.6996 129.329 83.6671 129.363 83.6459C129.382 83.634 129.401 83.6227 129.418 83.6122C129.454 83.591 129.486 83.5723 129.516 83.5556C129.634 83.489 129.709 83.4524 129.759 83.4291C129.862 83.3826 129.846 83.3974 129.834 83.4071C129.775 83.4477 129.752 83.7017 129.745 83.9346C129.741 84.1662 129.612 84.4362 129.088 84.5923C128.915 84.643 128.581 84.6892 128.181 84.7425C127.83 84.7786 127.384 84.8338 126.881 84.9436C126.402 84.9841 125.68 85.1793 125.305 85.801C125.381 86.197 125.6 86.6058 125.742 87.0007C123.921 85.6571 123.445 85.815 121.149 86.5017C120.771 86.609 120.365 85.959 119.711 86.2786C119.078 86.5938 119.137 87.662 117.757 87.7596C117.267 87.7903 116.917 87.0642 116.161 87.0835C114.03 87.1435 109.903 88.2618 108.102 88.3532C104.545 88.5418 102.573 87.3071 99.4034 87.8267C99.1579 87.8646 99.7176 88.6748 99.2663 88.7012C98.8134 88.7276 98.3204 87.6482 98.2077 87.6248C96.9975 87.3711 94.4831 88.8828 93.8059 88.7195C92.1683 88.3197 93.7616 87.8076 91.4985 87.646C90.2089 87.5545 88.6494 88.0411 87.1365 88.5189C86.0784 88.8443 85.1117 89.1638 84.2468 89.2934C81.7891 89.6638 80.9678 87.6175 79.1692 89.7873C72.4941 89.9103 67.878 88.8084 61.3946 86.4925C61.2812 86.9067 61.1705 87.3218 61.0605 87.7371C60.68 87.3037 60.2344 86.8489 59.8558 86.4195C59.8322 86.7472 59.8042 87.0739 59.7805 87.3982C58.1884 85.8263 56.6195 84.6867 54.5293 84.0368C54.0861 83.899 53.6238 83.7834 53.1371 83.6901C53.0838 83.6796 52.9564 84.5372 52.9071 84.5445C52.2578 84.5049 51.8298 83.6709 51.2463 83.6378C49.8722 83.5725 47.1269 84.5638 48.8319 82.7525C45.7737 82.165 42.7132 80.1069 39.8971 79.3133C38.6589 78.9608 37.7782 80.0355 37.1715 79.834C36.5828 79.6375 37.37 78.7265 37.1951 78.5927C36.1602 77.8127 34.2819 76.8891 33.4593 77.9192C33.4705 77.3369 33.4781 76.7442 33.5013 76.1621C32.9579 77.5277 29.7588 75.0337 28.8904 74.5C28.7258 74.405 28.3681 74.9264 28.2497 74.8444C26.9414 73.9178 27.168 72.8754 26.2466 71.8402C25.9291 71.475 25.8954 72.8176 25.1718 71.7127C25.11 71.6128 25.7362 70.8471 24.5901 69.9975C22.7524 68.6645 19.7888 65.5577 17.7641 63.9543C17.5944 63.8198 17.2083 65.0348 16.7526 64.128C16.5855 63.792 17.2856 63.4308 16.7612 62.7802C16.4075 62.334 16.0597 61.9132 15.6798 61.4507C14.053 59.5286 12.3742 57.1133 12.2401 54.3575C11.429 54.6968 10.8182 56.1489 10.8556 54.2449C10.8708 53.9423 11.681 53.9568 11.6776 53.8264C11.651 52.7949 10.9302 52.0261 11.0786 50.8836C11.1268 50.5507 11.725 50.3958 11.8299 49.9955C11.9915 49.4091 11.0989 49.2092 11.4432 48.5189C12.0068 47.4438 12.8214 47.4085 11.2936 46.0583C11.4068 44.969 11.6499 43.9159 11.9546 43.2203C14.7014 36.102 17.6696 31.3881 22.744 26.593C23.9112 25.9709 25.0747 25.4395 26.2512 24.8806C27.1968 24.4319 28.134 23.9794 29.091 23.4683C29.7257 23.1321 29.2631 22.1072 30.4509 21.8334C30.7244 21.7584 32.8801 21.9185 32.0709 19.8176C32.6206 19.7448 32.9194 19.5982 33.372 19.503C33.2181 19.9493 33.0598 20.4053 32.9328 20.8476C34.4181 19.6646 36.1484 19.7318 37.7845 19.443C38.9962 19.2339 37.8416 18.6722 38.5652 18.4811C39.2944 18.2901 39.6719 18.3738 40.156 16.9666C41.3065 17.9621 41.4394 16.9191 42.7343 16.4562C42.8743 16.4066 43.8363 16.6381 44.4846 16.337C44.9508 16.1204 44.8642 15.2802 45.6911 15.1799C45.828 15.1574 47.7648 15.6986 48.316 15.662C49.176 15.5963 50.2691 14.2546 50.4346 14.2057C52.7883 13.4923 53.906 14.3532 55.3221 12.3353C55.8583 13.2792 57.3953 13.616 58.5517 13.3275C59.9998 12.9573 62.7055 10.4397 63.4378 12.577C65.0363 11.3542 64.9332 11.9832 67.0131 11.7219C68.8996 11.4857 73.8443 9.99328 75.4143 9.90762C75.5871 9.89803 75.734 9.90539 75.8593 9.92622C76.7696 10.1136 76.4031 11.1604 76.9031 11.2497C77.8185 11.4284 77.2464 10.5728 77.8678 10.5284C79.6287 10.417 81.1994 10.5445 82.9037 10.9561C83.0019 10.3184 83.1102 9.67792 83.218 9.04085C83.3063 9.25498 83.3932 9.46955 83.4796 9.68405C83.8559 9.68465 84.2778 9.70992 84.6279 9.70363C81.6262 12.4122 87.4306 9.57179 89.2612 9.74816C90.7606 9.83355 93.0427 11.4803 94.5793 12.0348C94.9572 12.1698 94.8041 11.4444 94.8815 11.4736C95.7914 11.8297 95.8486 12.3158 97.1145 12.493C97.7819 12.5867 98.6383 11.8808 99.2916 12.0055C102.717 12.6658 105.978 13.9742 108.943 15.3087C110.124 15.8445 111.281 16.4017 112.442 16.9521C113.131 17.2797 114.193 16.6204 114.794 16.8987C115.659 17.3029 115.766 18.3441 116.508 18.785C117.245 19.2189 118.865 19.0175 119.283 19.4873C119.691 19.946 118.295 20.2133 119.343 20.5895C119.825 20.767 119.518 19.6529 120.042 19.9857C121.711 21.0372 123.244 23.4469 125.377 24.213C125.157 24.3137 124.929 24.376 124.702 24.4577C126.394 25.882 128.174 26.9374 129.839 28.6625C130.423 29.2628 130.933 30.8406 131.48 31.477C132.031 32.1157 132.822 31.9513 133.281 32.4619C133.472 32.6721 132.915 32.9987 133.048 33.1353C133.332 33.4261 133.629 33.6862 133.918 33.9107C134.778 34.3831 135.973 34.8903 136.507 36.5365C138.388 42.8299 138.47 50.7608 138.546 58.3661C138.531 59.4601 138.373 60.5203 138.079 61.5967C138.005 61.8671 137.158 61.8586 136.941 62.1977C136.6 62.7223 137.279 62.9723 137.28 63.0617C137.256 63.6497 136.695 63.2126 136.433 63.9193C135.884 65.4596 134.968 68.4516 133.85 70.1336C132.738 71.8394 131.514 73.3708 130.246 74.8702C128.659 76.7396 127.021 78.5021 125.296 80.4259C125.068 80.6753 125.982 81.0995 125.632 81.5672C123.139 84.8449 121.892 84.9261 118.683 88.8284C116.234 91.7781 111.686 96.8431 107.731 99.6375L107.956 99.5032C106.143 100.614 104.728 101.71 103.522 102.631C103.523 102.633 103.524 102.635 103.526 102.637C100.748 102.429 99.053 104.344 98.3075 106.548C102.014 105.664 105.494 103.627 109.305 101.893L109.197 101.958C116.102 98.3825 121.301 91.5997 126.865 84.9877C129.018 82.4032 131.258 79.8124 133.512 77.1434C138.043 71.5974 143.58 65.8924 143.742 58.1085C143.783 54.9047 143.668 51.7174 143.253 48.5868C143.079 47.2922 141.992 46.8834 142.07 45.7805C142.082 45.5903 142.934 45.9701 142.94 45.3875C142.9 40.288 141.582 34.6294 137.903 30.5195C135.964 28.4959 134.093 26.4349 132.378 24.3431C131.05 22.738 131.448 21.8819 130.259 20.4171C130.208 20.9477 130.055 21.4091 129.963 21.9095C123.789 17.4846 117.725 13.1859 110.561 10.731C109.788 10.4644 109.008 10.2205 108.213 9.99311C107.852 9.89182 107.541 10.7045 107.166 10.6256C106.388 10.4638 105.936 9.3436 105.268 9.12832C104.408 8.85316 104.077 9.48129 103.287 9.23474C102.893 9.11289 103.183 8.49849 102.289 8.39907C102.212 8.39113 102.006 9.05645 101.459 8.83703C99.9564 8.22017 96.8386 7.0111 95.5364 6.63021C93.8765 6.12672 92.3745 6.9872 91.7313 6.9746C89.996 6.94864 90.1461 5.88774 88.6706 5.74878C84.1741 5.35071 79.6988 5.53764 75.387 6.36145C69.543 7.48274 63.695 8.57749 57.6483 9.5647C56.9821 9.67018 54.32 8.91918 53.0888 9.21226C52.6797 9.30605 50.592 10.0584 50.2789 10.1589C48.9984 10.5405 48.0523 11.513 47.3859 11.8367C46.0997 12.4621 44.2856 11.8 43.5064 11.9153C42.143 12.0995 39.8982 13.013 39.3771 13.24C38.1066 13.7783 39.0274 14.9288 38.0049 14.9719C37.7023 14.9869 37.5928 13.8743 36.6393 14.2584C35.8428 14.5879 35.8378 15.4689 35.3684 15.8319C34.9013 16.1916 33.4101 15.5063 33.0881 15.6965C31.4333 16.6896 31.0656 17.7984 29.3054 18.8436C28.5169 19.3071 26.1444 20.5508 24.0695 21.7965C22.2503 22.8699 20.6714 23.9088 20.3514 23.9986C17.2135 24.9207 21.424 22.1569 21.6547 21.9907C22.5065 21.0974 22.381 20.7516 23.2106 20.5824C23.4232 20.5407 23.6982 20.513 24.0666 20.498C23.5534 17.1941 30.0282 18.6554 29.4215 15.0502C31.6492 16.5182 32.0202 15.0129 33.0537 14.0122C34.4797 12.6488 33.7516 14.4726 34.9826 13.9423C35.462 13.7337 36.4881 12.1615 37.3012 12.014C38.1064 11.8674 38.7035 12.5143 39.7177 12.206C41.5366 11.6631 42.867 10.8599 44.1594 9.48126C44.5604 9.81789 44.9391 10.1624 45.3295 10.5048C46.2701 9.76989 47.2368 9.05187 48.2144 8.34963C48.1269 8.75773 48.042 9.16906 47.9588 9.5771C48.2845 9.55564 48.6107 9.5324 48.9363 9.5107C49.8511 8.71852 50.7476 7.9886 51.7229 7.19336C55.0979 8.75817 53.8712 7.07794 55.4815 6.50001C57.0833 5.93451 58.2434 7.03075 59.5099 6.84133C61.2235 6.58913 62.0316 6.63216 63.7412 6.30112C64.7342 6.10999 66.2655 4.67295 65.1333 6.77665C68.2576 6.505 72.5622 6.49643 75.255 5.36501C75.2689 5.35917 75.2828 5.3533 75.2967 5.34742C75.8835 5.10297 75.4046 4.78746 75.154 4.60258C75.0651 4.53547 75.0073 4.48491 75.0421 4.46003C75.0707 4.44046 75.0994 4.42346 75.1283 4.40882C75.7786 4.08669 76.4655 4.91213 77.1492 4.71362C78.3402 4.35448 80.7194 3.4852 81.7067 3.30643C83.1314 3.02182 85.2969 4.38095 85.5035 4.4894C86.7162 5.06835 87.1115 4.03899 87.5105 4.13954C89.7608 4.73981 90.1801 5.25657 91.1592 3.10963C91.6622 4.13272 93.8611 6.07414 94.6929 4.5635C94.4901 6.01756 96.5297 6.09348 97.6914 6.69392C97.9948 6.31786 98.3122 5.94792 98.6247 5.57196C100.682 8.63573 106.071 7.96359 109.503 8.76755C109.585 8.7876 109.396 9.88363 109.96 9.81049C109.999 9.80232 110.098 9.31206 110.455 9.36584C110.6 9.38872 110.795 9.41265 111.019 9.43611C112.665 9.58421 116.275 10.1169 116.688 10.3308C118.437 11.1305 118.342 12.0319 119.31 12.6515C120.57 13.4864 121.141 12.9655 122.314 13.8368C122.863 14.2502 122.829 15.3979 123.761 15.8904C124.315 16.1879 124.814 15.6028 125.258 15.8555C126.829 16.757 127.515 17.9553 129.369 18.2583C128.053 20.3553 129.802 19.5087 130.506 19.9218C133.368 21.5717 135.246 25.2262 137.124 27.0951C137.88 27.8422 138.627 28.5695 139.37 29.2703C145.071 35.747 146.341 42.7795 147.49 49.8773C147.661 51.2212 146.463 51.6302 146.64 53.0177C146.719 53.6352 147.648 54.2249 147.722 55.2504C147.777 55.9738 147.483 56.9897 147.448 57.9248C147.444 58.0779 147.444 58.2288 147.449 58.3768C147.456 58.7052 148.292 58.7247 148.295 59.2346C148.305 63.1432 146.616 66.5784 144.858 69.4387C144.202 70.5062 144.824 71.6763 143.211 70.6197C143.424 71.2404 143.573 71.834 143.771 72.441C141.91 73.313 142.321 75.0863 140.87 76.7697C140.712 76.951 138.713 77.5754 138.989 78.8655C138.388 78.5339 137.987 78.091 137.46 77.7646C137.056 78.0968 136.84 78.7409 136.671 79.3421C136.541 79.8082 136.443 80.2426 136.32 80.4782C136.039 81.0148 135.075 80.8331 134.964 80.9734C134.543 81.5189 135.583 82.0733 135.568 82.1277C134.56 85.3993 134.227 84.779 131.663 85.2413C131.026 85.3585 129.956 88.7467 128.457 88.3693C128.872 88.7534 129.373 88.9269 129.821 89.2303C129.292 90.0973 128.755 90.9629 128.206 91.8173C127.94 91.2971 127.691 90.7547 127.402 90.2534C126.431 92.1068 124.345 92.5098 123.251 93.7373C122.621 94.4429 123.563 95.1868 122.991 95.4065C122.877 95.4502 122.423 94.7552 122.15 94.9439C119.941 96.4531 119.724 97.8634 117.866 99.772C116.983 100.666 115.226 100.256 114.457 102.111C114.406 102.273 113.76 104.435 111.787 103.516C111.841 104.198 111.763 104.624 111.808 105.188C111.538 105.106 111.306 105.036 111.107 104.98C111.098 104.986 111.071 105.001 111.062 105.007C108.78 104.256 110.206 106.114 108.463 108.072C107.492 109.157 103.17 111.928 101.541 112.635C100.588 113.06 100.011 112.12 99.8391 112.181C99.0145 112.46 99.1989 113.092 98.7914 113.516C98.7016 113.613 98.587 113.693 98.4172 113.753C97.5818 114.034 95.8821 113.794 95.2171 114.626C94.7457 115.247 96.1079 115.681 95.0858 116.188C94.8714 116.307 94.3884 115.083 94.0234 116.305C93.9446 116.494 93.982 118.719 93.5239 119.399C94.367 119.169 95.396 118.323 96.158 117.86C96.9399 117.366 97.6206 117.094 98.0008 116.939C98.6946 116.658 99.4474 116.433 100.291 116.239C105.232 114.541 109.742 111.218 113.666 109.62C113.72 109.587 113.884 109.495 113.936 109.459C125.474 102.992 134.35 92.8358 141.575 82.755C146.373 75.9243 151.887 67.2139 151.113 57.7432C151.108 57.6766 151.103 57.6103 151.098 57.5442C150.946 55.6437 149.723 54.4686 149.539 53.2297C149.353 51.993 150.477 52.9697 150.308 51.8421C150.131 50.7052 149.322 49.941 149.158 48.876C147.823 42.0967 147.528 35.0696 141.595 27.3765C141.355 27.113 141.105 26.8365 140.863 26.5675C139.673 25.2439 139.374 23.5701 138.24 22.2912C137.796 21.793 136.963 22.5178 136.653 22.1608C133.333 18.3659 130.412 14.1635 125.878 11.2054C123.995 9.97712 121.459 9.54665 119.502 8.63713C117.888 7.88403 116.46 6.54119 114.957 5.92329C114.144 5.58625 113.414 6.21291 113.102 6.16736C112.482 6.07139 112.436 5.76399 112.418 5.47819C112.406 5.26224 112.411 5.06025 112.181 4.98079C110.706 4.48035 109.638 5.44845 108.337 4.96228C107.829 4.77442 108.114 4.03358 107.38 3.69998C106.451 3.28341 106.614 4.08357 105.922 3.926C105.879 3.9181 106.161 3.40831 105.795 3.289C103.472 2.52328 100.566 1.42542 98.2247 1.03937C93.3669 0.224528 88.4044 0.758385 83.8112 0.874258C82.6472 0.905181 82.9614 0.177865 82.5877 0.138938C80.775 -0.0255192 80.157 0.867393 78.2483 0.663221C77.9361 0.630472 76.5645 -0.295192 75.3396 0.110709C75.097 0.190913 74.8511 0.341932 74.6121 0.512464C74.2495 0.79671 73.8994 1.13199 73.5918 1.26667C73.1027 1.48053 72.9047 0.562667 72.289 0.642465C71.1707 0.78513 71.5883 1.38472 69.9693 1.47847C69.3257 1.51683 67.0483 0.918802 65.3892 1.21039C62.6672 1.68706 59.3821 2.96497 56.1273 3.52524C55.0151 3.7188 53.4061 3.02202 51.6485 3.35601C49.5063 3.74714 45.5927 4.864 43.4037 5.50107C42.281 5.82006 42.4827 6.8167 42.3628 6.89409C41.5961 7.41244 41.6165 6.23282 41.0558 6.44927C40.2848 6.74958 39.8116 7.77458 39.1291 8.0625C38.6933 8.24692 38.3517 7.48854 38.2513 7.51621C34.5357 8.51985 31.3918 9.94629 27.9304 11.6667C25.2413 13.0098 22.6234 14.5266 20.1095 16.1986C12.0948 20.8584 4.50139 30.9288 1.79963 39.249C-1.61989 50.1372 0.874578 58.7916 6.0639 66.91C6.35807 67.3332 6.64566 67.6083 6.91959 67.809C7.64509 68.2859 8.31456 68.2759 8.97164 69.2839C9.85232 70.6237 9.31097 73.3591 12.0189 72.5459C11.6907 72.9297 11.4334 73.1799 11.1383 73.5329C13.9778 75.3762 15.9658 77.9763 18.4568 79.915C20.2881 81.3373 22.0511 82.406 23.867 83.4604C25.4765 84.3783 25.8004 83.5464 26.6089 85.3287C33.9031 88.6326 41.1875 91.8145 48.7986 93.0866C49.3476 94.2729 50.1545 94.7043 51.1423 94.9008C52.0644 95.0804 53.092 95.0316 54.2355 95.2512C54.5183 95.3041 54.0108 95.8604 54.8672 96.0718C55.907 96.3279 56.7742 95.5086 58.5111 96.125C58.9794 96.2923 62.1155 98.5118 63.7132 98.3399C65.2537 98.1713 67.4862 98.3702 69.16 98.0575C68.8646 98.4634 68.5041 98.8359 68.1668 99.2222C68.9584 99.4494 69.7701 99.6484 70.5796 99.8216C70.7598 99.3003 70.9355 98.7775 71.1028 98.2504C71.5053 98.8101 71.9061 99.3553 72.3423 99.9088C73.5052 97.2093 72.4542 98.0688 74.5352 98.8595C75.5946 99.2435 76.3862 98.7692 77.445 99.0534C77.8086 99.1572 78.0478 99.9721 78.4725 100.075C79.4684 100.32 78.8771 99.2022 79.4999 99.2029C80.1196 99.2068 81.0306 100.427 82.1162 99.86C80.9243 97.6841 84.2685 98.3409 84.4405 100.043C84.8269 100.038 85.156 99.9607 85.6046 99.9998C85.2412 96.6669 86.3703 97.7278 87.3458 98.64C87.6185 98.9055 87.8696 99.1587 88.0553 99.2879C88.8784 99.8609 88.8211 98.7037 89.0115 98.745C89.5616 98.8598 89.1726 99.3487 89.5571 99.3572C92.0998 99.403 94.4822 98.6499 96.9957 98.5325C97.3566 98.5157 97.0504 99.1769 97.4695 99.1037C97.8874 99.0303 98.2853 98.37 98.908 98.4014C99.0754 98.4091 99.14 98.9828 99.4006 98.9774C104.887 98.8229 110.08 98.2044 115.753 97.7895C116.275 97.7503 116.731 98.7472 117.745 98.6391C118.742 98.5323 120.202 97.4873 121.451 97.2856C121.782 97.2316 121.956 98.07 122.411 97.9965C123.938 97.7436 125.174 96.8816 126.796 96.4624C127.953 96.1577 129.176 95.9351 130.551 95.5077C131.375 95.2517 132.047 95.044 132.825 94.7384C132.914 94.7031 133 94.6678 133.084 94.6325C133.184 94.5913 133.298 94.5433 133.399 94.499C133.604 94.4092 133.792 94.3203 133.966 94.2302C134.188 94.1208 134.432 93.9941 134.642 93.8684C134.715 93.821 134.943 93.6978 135.119 93.5855C135.214 93.526 135.314 93.461 135.427 93.3822C135.455 93.3625 135.485 93.3419 135.515 93.3201C135.558 93.2906 135.645 93.2307 135.721 93.1746C135.88 93.0558 136.069 92.911 136.325 92.6517C136.492 92.4805 136.685 92.2628 136.892 91.9425C136.995 91.7821 137.101 91.595 137.201 91.3732C137.226 91.3178 137.25 91.26 137.274 91.2002C137.301 91.1294 137.308 91.1182 137.365 90.951C137.455 90.6811 137.53 90.3669 137.565 90.0172C137.786 88.5596 136.813 86.8533 136.044 86.3206C135.268 85.7072 134.766 85.5964 134.419 85.4943C133.887 85.3845 133.66 85.4186 133.46 85.4426C133.268 85.4723 133.139 85.5191 133.024 85.5702C132.949 85.621 132.893 85.6757 132.833 85.7319C132.714 85.8445 132.597 85.9628 132.442 86.0735C132.289 86.1843 132.174 86.279 131.956 86.3567C130.644 86.8868 131.021 85.7948 130.732 85.6962C129.805 85.3901 129.793 86.7901 128.966 86.5701C128.838 86.5361 128.872 85.7026 128.763 85.7079C127.127 85.8362 127.328 87.7525 125.534 86.9729C124.218 88.2559 126.717 88.3035 127.086 88.8248C127.95 90.1235 126.516 92.0506 125.485 92.7063C124.577 93.2707 124.497 92.3799 124.108 92.4048C123.876 92.417 123.529 92.4251 123.223 92.4057C123.026 92.3939 122.815 92.3731 122.586 92.3237C122.45 92.2944 122.243 92.2415 122.025 92.1368C121.907 92.0776 121.815 92.032 121.64 91.8963C121.444 91.7417 121.223 91.4958 121.089 91.1657C120.816 90.3963 121.022 89.9909 121.151 89.683C121.226 89.5318 121.306 89.4116 121.385 89.3092C121.431 89.2498 121.477 89.1957 121.524 89.1452C121.616 89.0442 121.709 88.9565 121.805 88.8733C121.853 88.8317 121.902 88.7915 121.952 88.7518C121.986 88.7248 122.018 88.7002 122.052 88.6746C122.311 88.4771 122.664 88.2542 122.878 88.123C123.946 87.4785 124.826 86.9977 125.417 86.4797C126.159 85.8492 124.478 86.2406 124.782 85.7744C124.928 85.5435 125.148 85.5426 125.351 85.4906C125.528 85.4505 125.674 85.3658 125.725 84.9427C125.808 84.1036 125.872 81.7351 125.283 80.8815ZM10.5628 56.3705C9.1469 58.4049 9.7137 61.7577 11.4787 64.5C12.7601 66.5609 14.5526 68.2838 15.9029 69.407C18.5596 71.6321 22.4936 71.2164 19.5258 73.8465C16.616 71.5236 14.6582 69.1959 12.0763 66.1948C11.9472 66.0447 11.3966 65.4982 10.8705 64.9414C10.3291 64.367 9.79142 63.7211 9.53859 63.3661C9.25186 62.9604 8.68735 63.2748 8.35322 62.6659C8.27777 62.5289 8.63501 61.4108 8.4901 61.1618C7.94543 60.3401 5.63847 57.9302 5.56515 57.4637C5.30895 56.2728 6.41026 56.4387 6.4439 55.9031C6.59847 54.1424 5.09416 54.2847 5.28145 52.516C5.31881 52.195 6.46005 51.0498 6.20087 49.8814C6.09004 49.4065 5.37969 48.5832 5.40907 48.1948C5.54869 46.0582 6.66941 43.8676 7.11045 42.0447C7.17431 41.7746 7.20529 41.5448 7.20262 41.3619C7.18264 40.5469 6.47361 40.4394 6.60839 39.7911C6.77611 39.001 8.22142 38.5387 8.49114 38.0632C8.91705 37.3002 8.73674 36.0579 8.86193 35.8085C11.2468 30.879 14.9197 27.4132 18.9246 24.3207C16.6163 26.9388 14.6482 29.7909 13.3464 32.851C11.489 33.937 12.801 33.6364 12.5063 34.8634C12.2954 35.8373 10.5933 35.2762 10.2173 36.5783C10.2177 36.5773 10.2182 36.5763 10.2186 36.5753C10.0256 37.2506 10.5864 39.0718 9.57804 40.2354C9.54107 40.2764 8.63751 40.0586 8.20641 41.0721C8.12733 41.2583 8.04217 41.4528 7.95171 41.6549C6.93085 43.8505 6.34615 47.3631 6.75292 49.9141C6.88306 50.7325 7.82311 50.4693 8.05879 51.3779C8.23556 52.0315 7.48283 52.9796 7.91972 54.0111C8.4861 55.3134 10.1285 55.4159 8.39477 56.9713C9.14114 56.8016 9.83236 56.5276 10.5628 56.3705ZM72.2125 93.6405C72.443 93.5962 75.0695 91.348 74.2088 93.8487C70.6543 94.8684 66.8876 93.4749 63.2212 92.949C65.1759 90.9092 66.8481 92.4967 69.3253 93.1569C69.3264 93.1571 69.3274 93.1573 69.3285 93.1574C69.443 93.187 69.0786 92.453 69.7157 92.6897C70.0094 92.8051 71.1317 93.9994 72.2125 93.6405Z" fill="#6F59FF" fill-opacity="0.8"/>
</svg>
